<svg width="114" height="84" fill="none" xmlns="http://www.w3.org/2000/svg"><path d="M93.987 0a2.473 2.473 0 00-2.197 1.245L70.382 37.21c-6.503.637-11.149 3.184-14.275 6.802-3.338 3.868-5.022 8.673-6.561 13.4-1.53 4.717-2.904 9.416-5.158 13.236-2.197 3.724-5.11 6.647-10.123 8.412H2.51a2.494 2.494 0 00-2.177 1.226 2.486 2.486 0 000 2.489A2.494 2.494 0 002.51 84h32.21c17.343 0 30.65-1.187 40.096-6.232 9.28-4.969 14.216-14.037 14.371-27.669L113.72 3.647A2.48 2.48 0 00112.674.31a2.495 2.495 0 00-3.348 1.042l-24.06 45.574c-2.022.048-4.935-.52-7.267-1.862-1.336-.772-2.43-1.717-3.049-2.605-.561-.82-.677-1.495-.58-2.257L96.047 3.753a2.451 2.451 0 00.068-2.47 2.495 2.495 0 00-2.13-1.282zM69.53 42.257a8.837 8.837 0 001.345 3.01c1.18 1.707 2.835 3.039 4.645 4.08 2.69 1.544 5.73 2.538 8.642 2.683-.503 11.23-4.296 17.432-11.69 21.388-6.272 3.357-16.298 4.611-28.28 5.123 1.743-1.66 3.31-3.435 4.462-5.393 2.69-4.554 4.114-9.6 5.614-14.22 1.49-4.622 3.068-8.77 5.593-11.693 2.168-2.508 4.994-4.303 9.669-4.978z" fill="#CE4E06"/></svg>