<svg width="46" height="46" fill="none" xmlns="http://www.w3.org/2000/svg"><path d="M36.703 31.32c-.248.06-.505.06-.76.06l-3.304-.009c-.147 0-.294.01-.44.01v0c-.315 0-.965-.084-1.73-.608-1.372-.953-2.681-3.32-3.719-3.32a.612.612 0 00-.199.03c-.9.284-1.173 1.185-1.173 2.285 0 .387-.272.565-1.006.565h-2.021c-2.263 0-4.453-.052-6.915-2.744-3.393-3.717-6.584-10.142-6.978-10.948a1.321 1.321 0 01-.074-.172c-.043-.133-.098-.39.044-.561.188-.22.628-.241.796-.241h.063s0 0 0 0h3.457c.488 0 1.012-.008 1.404.283v0c.337.249.462.689.658 1.06.29.545.767 1.432 1.311 2.386 1.498 2.577 2.305 3.436 2.881 3.436a.57.57 0 00.283-.073c.678-.372.664-2.83.628-3.846-.01-.293-.017-.586-.039-.878-.034-.459-.134-1.163-.421-1.551-.346-.482-1.006-.618-1.3-.66-.23-.032.147-.576.65-.828.65-.314 1.729-.377 3.028-.377h.628c1.226.021 1.257.147 1.74.262 1.445.346.953 1.697.953 4.934 0 1.037-.189 2.494.555 2.986a.426.426 0 00.22.052c.482 0 1.519-.618 3.174-3.415a39.67 39.67 0 001.422-2.718c.144-.303.272-.633.539-.836a.826.826 0 01.072-.05c.23-.136.23-.136.534-.136h.031c.336 0 3.667-.031 4.4-.031h.084c.702 0 1.341.01 1.456.44.168.65-.513 1.812-2.304 4.222-2.955 3.95-3.29 3.656-.839 5.94 2.347 2.179 2.829 3.237 2.913 3.373.698 1.157-.16 1.549-.702 1.678z" stroke="#fff"/></svg>