<svg width="44" height="44" fill="none" xmlns="http://www.w3.org/2000/svg"><path d="M.5 13C.5 6.106 6.106.5 13 .5h18C37.894.5 43.5 6.106 43.5 13v18c0 6.894-5.606 12.5-12.5 12.5H13C6.106 43.5.5 37.894.5 31V13zm36-3c0-1.376-1.124-2.5-2.5-2.5a2.506 2.506 0 00-2.5 2.5c0 1.376 1.124 2.5 2.5 2.5s2.5-1.124 2.5-2.5zm-3 12c0-6.346-5.154-11.5-11.5-11.5S10.5 15.654 10.5 22 15.654 33.5 22 33.5 33.5 28.346 33.5 22zm-20 0c0-4.684 3.816-8.5 8.5-8.5s8.5 3.816 8.5 8.5-3.816 8.5-8.5 8.5-8.5-3.816-8.5-8.5z" stroke="#fff"/></svg>