<svg width="42" height="42" fill="none" xmlns="http://www.w3.org/2000/svg"><path d="M33.735 29.5h-.016l-3.704-.01a2.916 2.916 0 01-.235.01c-.388 0-1.11-.104-1.933-.668l-.002-.001c-.607-.422-1.197-1.1-1.708-1.69-.095-.109-.187-.215-.277-.316-.299-.339-.566-.622-.808-.82-.256-.21-.404-.255-.472-.255a.086.086 0 00-.032.004l-.008.003h0c-.278.087-.456.26-.577.527-.13.287-.193.683-.193 1.176 0 .15-.026.314-.108.471a.915.915 0 01-.358.37c-.273.159-.627.199-.994.199h-1.93c-1.076 0-2.209-.01-3.376-.368-1.18-.363-2.365-1.072-3.593-2.415h0c-1.768-1.936-3.465-4.607-4.712-6.774a71.289 71.289 0 01-2.031-3.797l-.029-.059-.007-.015-.002-.004h0v-.001l.45-.217M33.735 29.5L12.9 14.75s-.12-.31-.35-.48l.298-.402s0 0 0 0a2.055 2.055 0 00-.56-.282 2.538 2.538 0 00-.256-.071l-.019-.004-.006-.002h-.003 0L11.91 14l.093-.491-.046-.009H7.91h0-.001 0-.001 0-.001 0-.001 0-.001 0-.001 0-.001 0-.001 0H7.9h0-.001 0-.001 0-.001 0-.001 0-.001 0-.001 0-.001 0-.001 0-.001 0-.001 0-.001 0-.001 0-.001 0-.001 0-.001 0-.001 0-.001 0-.001 0-.001 0-.001 0-.001 0-.001 0-.001 0-.001 0-.001 0-.001 0-.001 0-.001 0-.001 0-.001 0-.001 0-.001 0-.001 0-.001 0-.001 0-.001 0-.001 0-.001 0-.001 0-.001 0-.001 0-.001 0-.001 0-.001 0-.001 0-.001 0-.001 0-.001 0-.001 0-.001c-.096 0-.28.006-.476.047-.178.038-.464.124-.664.358h0l-.005.007c-.236.285-.213.626-.184.797a1.503 1.503 0 00.099.337l.003.008.002.003v.002h0l.455-.209M33.735 29.5h.016m-.016 0h.016M7.08 14.85l-.45.217-.004-.007.454-.21zm21.3-.28l-.437-.243-.01.018-.009.02.456.205zm0 0l-.437-.243m.437.243l-.437-.243m5.808 15.172L33.72 29l.03.5zm-5.245-15.77h0l.022-.013c.086-.051.201-.12.337-.154.128-.033.263-.032.374-.032h.061l1.427-.01.526-.005A386.14 386.14 0 0133.5 13.5h.08c.32 0 .698 0 1.01.067.309.067.733.24.863.723l.001.005c.07.27.04.553-.04.83a4.42 4.42 0 01-.406.922c-.373.675-.981 1.55-1.837 2.701v.002c-.343.457-.64.845-.902 1.185-.29.378-.532.695-.738.978-.394.544-.561.851-.607 1.07-.031.152-.013.295.187.561.222.295.6.651 1.2 1.21 0 0 0 0 0 0l-.341.366-3.464-10.39zm0 0l-.006.004m.006-.004l-.006.004m0 0c-.188.114-.327.27-.41.377m.41-.377l-.41.377m0 0a1.964 1.964 0 00-.104.146m.103-.146l-.103.146m0 0a1.503 1.503 0 00-.029.047m.03-.048l-.03.048m0 0l-.009.015m.01-.015l-.01.015m0 0l-.003.005m.003-.005l-.003.005m0 0l-.001.002m.001-.002l-.001.002m0 0v.001m0 0h0m0 0h0m0 0h0m0 0l-.001.001m0 0h0m-14.568.252l-.021-.04 4.177 2.174h0v.008l.002.029.006.112a18.9 18.9 0 01.009 1.672c-.02.472-.066.934-.149 1.295a1.82 1.82 0 01-.135.41.378.378 0 01-.062.096.045.045 0 01-.008.004.058.058 0 01-.014.001c-.033 0-.231-.037-.666-.543-.409-.477-.94-1.264-1.65-2.487a83.924 83.924 0 01-1.49-2.73zm3.805 6.261c.09 0 .18-.02.27-.07l-3.02-3.21c1.43 2.46 2.2 3.28 2.75 3.28zm.03-.508h-.002.001zM5 .5h32c2.484 0 4.5 2.016 4.5 4.5v32c0 2.484-2.016 4.5-4.5 4.5H5A4.502 4.502 0 01.5 37V5C.5 2.516 2.516.5 5 .5z" stroke="#fff"/></svg>