<svg width="70" height="84" fill="none" xmlns="http://www.w3.org/2000/svg"><path d="M68.434 0c-.215.006-.43.062-.625.175L46.567 12.264a38.918 38.918 0 00-9.605 7.716l-2.739 3.025A22.124 22.124 0 0028.136 42h-9.052a3.942 3.942 0 00-3.932 3.938 3.942 3.942 0 003.932 3.937h1.31v.6a2.625 2.625 0 01-2.19 2.594L9.33 54.546a6.602 6.602 0 00-5.35 5.188L.078 79.288a3.925 3.925 0 00.809 3.271A3.939 3.939 0 003.929 84h56.523a3.92 3.92 0 003.036-1.44 3.91 3.91 0 00.814-3.272l-3.906-19.554a6.59 6.59 0 00-5.35-5.188l-8.868-1.477a2.625 2.625 0 01-2.191-2.594v-.6h1.31a3.942 3.942 0 003.932-3.937 3.94 3.94 0 00-1.617-3.169 21.854 21.854 0 007.009-5.28l5.12-5.784a39.112 39.112 0 001.755-2.056c.01-.02.031-.036.041-.056a38.747 38.747 0 008.228-28.424A1.317 1.317 0 0068.434 0zm-1.111 3.471a36.075 36.075 0 01-7.629 24.225l-6.691 1.343a1.307 1.307 0 00-1.024 1.543c.123.626.67 1.057 1.285 1.057.082 0 .169-.01.256-.031l3.41-.682-1.664 1.882a1.055 1.055 0 00-.384 0l-9.405 1.886a1.307 1.307 0 00-1.03 1.543 1.308 1.308 0 001.542 1.026l6.456-1.292a19.258 19.258 0 01-10.102 5.855 1.33 1.33 0 00-.4.174h-7.535l7.715-7.721a1.313 1.313 0 10-1.858-1.856l-9.488 9.51-.04-.225c-1.02-6.137.983-12.438 5.39-16.898l2.776-3.066a36.283 36.283 0 018.96-7.198L67.322 3.47zm-11.07 13.49c-.332 0-.67.127-.926.389l-1.879 1.881a1.304 1.304 0 000 1.856c.251.257.589.385.922.385.338 0 .676-.128.926-.385l1.885-1.886a1.307 1.307 0 000-1.851 1.294 1.294 0 00-.927-.39zm-5.646 5.654c-.333 0-.671.128-.927.385l-5.647 5.655a1.313 1.313 0 00.926 2.24c.338 0 .671-.128.927-.384l5.647-5.655a1.313 1.313 0 00-.926-2.24zm-31.523 22.01h26.213a1.314 1.314 0 01.001 2.625H19.083a1.314 1.314 0 010-2.625zm3.932 5.25h18.35v.6a5.237 5.237 0 004.382 5.183l8.873 1.477a3.952 3.952 0 013.21 3.112l1.09 5.486a1.31 1.31 0 00-1.828 1.205v2.625a1.31 1.31 0 001.311 1.312c.702 0 1.265-.554 1.295-1.246l.774 3.871H3.909l.773-3.87c.03.691.594 1.245 1.295 1.245.727 0 1.31-.59 1.31-1.312v-2.625a1.31 1.31 0 00-1.827-1.205L6.003 63h37.984c.727 0 1.31-.59 1.31-1.312a1.31 1.31 0 00-1.31-1.313H6.53l.02-.128a3.952 3.952 0 013.21-3.112l8.873-1.477a5.237 5.237 0 004.383-5.183v-.6zm26.213 10.5c-.727 0-1.31.59-1.31 1.313A1.31 1.31 0 0049.229 63h5.243c.727 0 1.31-.59 1.31-1.312a1.31 1.31 0 00-1.31-1.313H49.23zm-36.698 5.25a1.31 1.31 0 00-1.311 1.313v2.625a1.31 1.31 0 102.621 0v-2.625a1.31 1.31 0 00-1.31-1.313zm6.553 0c-.727 0-1.31.59-1.31 1.313v2.625a1.31 1.31 0 102.62 0v-2.625a1.31 1.31 0 00-1.31-1.313zm6.553 0c-.727 0-1.31.59-1.31 1.313v2.625a1.31 1.31 0 102.62 0v-2.625a1.31 1.31 0 00-1.31-1.313zm6.554 0c-.727 0-1.311.59-1.311 1.313v2.625a1.31 1.31 0 102.621 0v-2.625a1.31 1.31 0 00-1.31-1.313zm6.553 0c-.727 0-1.31.59-1.31 1.313v2.625a1.31 1.31 0 102.62 0v-2.625a1.31 1.31 0 00-1.31-1.313zm6.553 0c-.727 0-1.31.59-1.31 1.313v2.625a1.31 1.31 0 102.621 0v-2.625a1.31 1.31 0 00-1.31-1.313zm6.554 0c-.727 0-1.31.59-1.31 1.313v2.625a1.31 1.31 0 102.62 0v-2.625a1.31 1.31 0 00-1.31-1.313zm-48.47 10.5H61l.737 3.681a1.32 1.32 0 01-.276 1.092c-.246.303-.62.477-1.009.477H3.93c-.394 0-.763-.174-1.014-.477a1.31 1.31 0 01-.266-1.092l.732-3.681z" fill="#CE4E06"/></svg>