<svg width="79" height="84" fill="none" xmlns="http://www.w3.org/2000/svg"><path d="M34.002 0a3.6 3.6 0 00-2.54 1.047 3.565 3.565 0 000 5.053 3.6 3.6 0 005.079 0 3.565 3.565 0 000-5.053A3.6 3.6 0 0034 0zm-8.697 3.584a1.812 1.812 0 00-1.445.506c-.323.34-.519.806-.519 1.27 0 .465.196.93.52 1.27.34.322.809.517 1.276.517.233 0 .468-.054.684-.143a2.07 2.07 0 00.592-.374c.323-.34.52-.805.52-1.27 0-.464-.197-.93-.52-1.27a2.07 2.07 0 00-.592-.374 1.735 1.735 0 00-.516-.132zm-7.108 3.584a1.772 1.772 0 00-1.322.356 1.78 1.78 0 00-.344 2.498c.36.465.9.698 1.438.698.377 0 .753-.106 1.077-.356v-.02a1.78 1.78 0 00.343-2.5 1.832 1.832 0 00-1.192-.676zM37.75 12.5a1.805 1.805 0 00-.473.06c-.447-.03-.9-.053-1.368-.053-4.847 0-11.222 1.476-16.334 6.804-5.111 5.33-8.802 14.338-8.802 28.93 0 11.651 7.8 21.44 17.955 21.44.982 0 1.996-.12 3.019-.304.027-.001.053.005.08.004.173-.011.343-.046.506-.105 6.429-1.364 13.244-6.299 16.944-14.545.356 2.12.859 4.139 1.564 5.981.974 2.546 2.356 4.793 4.355 6.418 2 1.624 4.603 2.55 7.645 2.55h3.59c.354.005.7-.095.997-.286 2.618-.378 4.517-1.8 5.302-3.34.895-1.754.884-3.181.884-3.52a1.78 1.78 0 00-1.103-1.674 1.803 1.803 0 00-1.971.394 1.785 1.785 0 00-.517 1.28c0-.257-.033.998-.495 1.902-.461.904-1.017 1.671-3.096 1.671-.374 0-.59-.086-.978-.502-.389-.416-.833-1.19-1.203-2.22-.74-2.06-1.195-5.081-1.414-8.123-.436-6.085 0-12.256 0-12.256v-.004c.61-8.771 1.748-13.97 3.504-19.21a1.777 1.777 0 00-.21-1.556c-4.102-6.123-11.832-7.89-11.832-7.89a1.8 1.8 0 00-2.178 1.302s-.74 3.087-1.536 7.349c-.872-2.688-2.229-5.216-4.44-7.123-1.936-1.67-4.484-2.79-7.623-3.193a1.801 1.801 0 00-.772-.181zm-26.128.014a1.785 1.785 0 00-1.21.649c-.646.75-.54 1.877.231 2.502.324.286.738.408 1.133.408.52 0 1.04-.213 1.4-.642.628-.75.519-1.876-.253-2.52a1.76 1.76 0 00-1.301-.397zm63.787 3.566a3.6 3.6 0 00-2.539 1.047 3.565 3.565 0 000 5.053 3.6 3.6 0 005.078 0 3.565 3.565 0 000-5.053 3.6 3.6 0 00-2.539-1.047zm-37.708.094c2.718.268 4.64 1.146 6.095 2.401 1.759 1.517 2.903 3.68 3.626 6.25 1.447 5.141 1.056 11.683 1.056 16.269 0 15.192-9.517 23.164-17.096 24.713-1.116.023-1.864-.26-2.577-.886-.765-.671-1.485-1.833-2.055-3.51-1.14-3.355-1.613-8.623-1.613-14.957 0-13.996 3.49-21.58 6.789-25.684 1.65-2.052 3.264-3.247 4.44-3.93a10.164 10.164 0 011.335-.666zm-6.96.57a22.029 22.029 0 00-1.62 1.793c-3.883 4.83-7.575 13.326-7.575 27.917 0 6.497.407 11.996 1.802 16.1.346 1.018.754 1.957 1.252 2.8-5.855-2.179-10.236-8.875-10.236-17.114 0-13.995 3.491-21.96 7.806-26.458a18.083 18.083 0 018.57-5.039zm24.455 1.775c1.858.66 5.04 2.062 7.46 5.193C61 28.89 59.84 34.314 59.253 42.758c0 .004-.461 6.334 0 12.755.23 3.21.673 6.444 1.616 9.073.184.511.53.874.761 1.34-1.675-.197-3.066-.676-4.162-1.567-1.368-1.111-2.455-2.772-3.276-4.917-1.641-4.289-2.125-10.393-2.125-16.562 0-10.75 2.486-21.635 3.128-24.36zM7.312 19.671a1.814 1.814 0 00-1.764.91c-.467.858-.16 1.95.72 2.433.268.143.574.213.862.213.628 0 1.237-.32 1.578-.928a1.783 1.783 0 00-.72-2.412 1.758 1.758 0 00-.676-.216zM4.41 26.804a1.82 1.82 0 00-1.596 1.186 1.778 1.778 0 001.096 2.27 1.79 1.79 0 002.297-1.071A1.802 1.802 0 005.112 26.9a1.815 1.815 0 00-.704-.097zm68.496.024a1.764 1.764 0 00-1.445 1.347 1.781 1.781 0 001.74 2.199 1.8 1.8 0 001.743-1.358 1.79 1.79 0 00-2.038-2.188zm-.673 7.136a1.79 1.79 0 00-1.94 1.627 1.775 1.775 0 001.635 1.93h.161c.916 0 1.706-.698 1.778-1.627a1.775 1.775 0 00-1.634-1.93zm-69.91.014a1.778 1.778 0 00-1.406 1.39 1.776 1.776 0 001.399 2.107c.108.036.236.052.361.052.844 0 1.581-.59 1.76-1.43a1.778 1.778 0 00-1.402-2.108 1.758 1.758 0 00-.712-.01zm69.496 7.116a1.77 1.77 0 00-1.795 1.769c0 .983.79 1.786 1.778 1.804a1.81 1.81 0 001.813-1.77c0-1-.79-1.803-1.796-1.803zm-69.871.038a1.79 1.79 0 00-1.94 1.626c-.09.983.63 1.84 1.635 1.93h.161a1.79 1.79 0 001.778-1.626c.09-.983-.647-1.84-1.634-1.93zm73.445 5.297a1.8 1.8 0 00-1.252.548l-2.322 2.31-2.321-2.31a1.795 1.795 0 00-1.287-.54 1.802 1.802 0 00-1.663 1.114 1.78 1.78 0 00.41 1.953l3.592 3.573a1.8 1.8 0 002.539 0l3.59-3.573a1.785 1.785 0 00.413-1.975 1.802 1.802 0 00-1.7-1.1zM1.743 48.24a1.79 1.79 0 00-1.707 1.878 1.775 1.775 0 001.778 1.696h.09a1.786 1.786 0 001.705-1.878 1.77 1.77 0 00-1.866-1.696zM3.1 55.412a1.76 1.76 0 00-.711.01 1.764 1.764 0 00-1.382 2.108c.18.84.913 1.43 1.757 1.43.108 0 .235-.017.361-.034.97-.215 1.597-1.164 1.4-2.129A1.81 1.81 0 003.1 55.412zm1.764 7.125a1.79 1.79 0 00-.697.123 1.795 1.795 0 00-.99 2.34c.27.697.952 1.106 1.652 1.106a1.776 1.776 0 001.67-2.446 1.82 1.82 0 00-1.635-1.124zm4.401 6.167a1.811 1.811 0 00-1.34.31 1.775 1.775 0 00-.392 2.502 1.77 1.77 0 001.455.733c.36 0 .719-.11 1.042-.342a1.767 1.767 0 00.41-2.481 1.819 1.819 0 00-1.175-.722zm17.65 4.533a1.8 1.8 0 00-1.663 1.114 1.779 1.779 0 00.41 1.953l2.322 2.31-2.321 2.31a1.786 1.786 0 00-.42 1.964 1.786 1.786 0 00.985.98 1.803 1.803 0 001.974-.417l3.59-3.574a1.782 1.782 0 000-2.526l-3.59-3.574a1.797 1.797 0 00-1.287-.54zm-12.845.041a1.79 1.79 0 00-.757 3.22v-.016a1.77 1.77 0 001.04.338c.557 0 1.115-.246 1.456-.729a1.772 1.772 0 00-.393-2.502 1.826 1.826 0 00-1.347-.31zm7.308 3.556c-.176.015-.35.055-.516.123a2.144 2.144 0 00-.593.394c-.323.34-.519.784-.519 1.267a1.793 1.793 0 001.112 1.643c.216.09.45.143.684.143.467 0 .935-.198 1.276-.537.323-.322.52-.785.52-1.25 0-.482-.197-.927-.52-1.266a1.846 1.846 0 00-1.444-.517z" fill="#CE4E06"/></svg>