<svg width="77" height="84" fill="none" xmlns="http://www.w3.org/2000/svg"><path d="M55 0c-3.12 0-5.654 2.52-5.654 5.621v3.646c0 .51.2 1 .555 1.368.356.368.84.584 1.354.604-.377 5.592-2.292 9.948-4.347 14.568-2.292 5.151-4.741 10.642-4.741 18.014 0 10.884 3.666 17.567 3.666 21.951 0 2.103-.789 4.226-1.69 6.348-.9 2.122-1.976 4.193-1.976 6.572 0 2.308 1.332 3.977 2.596 4.653 1.264.676 2.495.655 2.495.655h24.65s1.232.02 2.496-.655C75.668 82.669 77 81 77 78.692c0-2.379-1.076-4.45-1.977-6.572-.9-2.122-1.69-4.245-1.69-6.348C73.333 61.39 77 54.705 77 43.821c0-7.372-2.45-12.863-4.74-18.014-2.056-4.62-3.972-8.976-4.348-14.568a1.99 1.99 0 001.354-.604 1.97 1.97 0 00.555-1.368V5.62c0-3.1-2.534-5.621-5.654-5.621H55zm0 3.952h9.167c.755 0 1.68.92 1.68 1.67V7.29H53.32V5.62c0-.749.924-1.67 1.679-1.67zM23.762 11.09C8.896 11.09.147 21.016.015 31.435a1.93 1.93 0 00-.008.428c.024 5.065 1.221 15.768 2.417 25.483a1236.035 1236.035 0 002.41 18.377c.379 3.748 3.348 6.804 7.183 7.526l.043.007c1.216.2 3.692.346 6.488.491 2.742.142 5.542.245 7.115.25h.01l.133.003c3.67 0 7.842-.413 10.152-.9h.003a8.654 8.654 0 003.678-1.703 1.827 1.827 0 00.725-1.225 1.813 1.813 0 00-.381-1.371 1.83 1.83 0 00-1.256-.682 1.843 1.843 0 00-1.366.423 4.98 4.98 0 01-2.144.986c-1.7.361-5.672.748-8.96.787-2.546-1.096-4.562-3.72-5.904-7.373-1.384-3.764-2.02-8.414-2.02-12.638 0-10.915 3.013-17.146 5.887-21.065l.01-.018c.918-1.28 3.537-2.378 6.811-3.246 3.046-.808 6.462-1.581 9.425-2.948a1.84 1.84 0 001.514-1.015 1.813 1.813 0 00.09-1.48c-.067-.737-.288-2.302-1.64-4.106-1.684-2.246-5.102-4.239-10.756-4.336-1.553-1.593-3.208-2.725-4.76-3.222a11.991 11.991 0 00-3.57-.558c-.926-.005-1.507.1-1.507.1a1.839 1.839 0 00-1.336 1.027 1.813 1.813 0 00.076 1.678s.275.71.426 1.032c-5.31.316-8.986 2.553-11.14 4.885a14.939 14.939 0 00-2.202 3.125c-.93-.722-1.368-1.404-1.41-2.456a1.81 1.81 0 00-.018-.2c1.848-6.905 8.357-12.766 19.529-12.766 12.007 0 16.285 5.084 17.996 8.17a1.825 1.825 0 001.096.888 1.842 1.842 0 001.956-.614 1.82 1.82 0 00.385-1.351 1.817 1.817 0 00-.224-.681c-2.22-4-8.11-10.057-21.21-10.057zm31.156.153h9.331c.39 6.389 2.578 11.361 4.659 16.038a135.64 135.64 0 011.668 3.863l-3.333.007-3.209-7.979a1.84 1.84 0 00-3.233-.363 1.816 1.816 0 00-.169 1.716l2.668 6.633-7.44.01 2.674-6.643a1.812 1.812 0 00-.186-1.736 1.83 1.83 0 00-1.568-.784 1.84 1.84 0 00-1.648 1.168l-3.218 8.003-3.338.007c.53-1.301 1.1-2.592 1.683-3.902 2.08-4.677 4.27-9.649 4.659-16.038zm-31.94 11.011c.391.06.347-.066.809.082 1.88.602 4.106 1.957 5.679 5.838a1.821 1.821 0 00.979 1.022 1.842 1.842 0 002.428-.97 1.813 1.813 0 00-.005-1.412c-.11-.268-.295-.359-.412-.612 2.559.531 4.291 1.417 5.03 2.403.56.745.44.925.552 1.406-2.297.921-5.04 1.67-7.942 2.44-3.212.851-6.413 1.795-8.433 4.168-2.94-2.088-7.005-2.856-10.502-3.962a36.049 36.049 0 01-2.27-.82c.359-.66.876-1.476 1.672-2.338 1.706-1.848 4.507-3.637 9.224-3.753.19 1.104.502 2.052.387 3.418a1.813 1.813 0 00.403 1.364 1.832 1.832 0 001.264.662 1.844 1.844 0 001.359-.443 1.825 1.825 0 00.626-1.277c.243-2.878-.274-5.399-.848-7.216zM3.824 33.333c.035.025.055.068.09.093 1.784 1.236 3.938 2.01 6.134 2.705 3.71 1.174 7.539 2.274 9.535 3.553-2.635 4.5-4.916 11.026-4.916 20.62 0 4.578.653 9.566 2.241 13.888.81 2.202 1.88 4.26 3.27 5.963-.561-.025-.876-.02-1.436-.05-2.742-.142-5.487-.352-6.048-.441-2.302-.437-4.007-2.284-4.211-4.304a1.83 1.83 0 00-.01-.072s-1.203-8.61-2.407-18.387c-1.125-9.135-2.1-18.686-2.242-23.568zm68.077 1.456c.86 2.736 1.432 5.648 1.432 9.032 0 2.02-.174 3.831-.411 5.547H46.245c-.237-1.716-.412-3.528-.412-5.547 0-3.368.565-6.269 1.418-8.993l5.515-.007c.244.05.497.048.74-.003l12.072-.018c.3.076.616.075.916-.004l5.407-.007zM28.417 51.19c-.73 0-1.429.288-1.945.801a2.726 2.726 0 000 3.867 2.758 2.758 0 003.89 0 2.726 2.726 0 000-3.867 2.758 2.758 0 00-1.945-.8zm18.466 1.823h3.849c.268 2.229.862 4.762 1.4 7.099.567 2.461 1.035 4.795 1.035 5.66 0 2.103-.783 4.174-1.683 6.255-.9 2.082-1.984 4.126-1.984 6.505 0 .668.13 1.272.333 1.822h-2.575s-.393-.021-.759-.217c-.365-.195-.666-.266-.666-1.445 0-1.108.758-2.96 1.69-5.155.933-2.196 1.977-4.79 1.977-7.765 0-3.944-1.533-7.805-2.617-12.759zm7.573 0H64.71c-.256 1.84-.748 4.094-1.253 6.287-.569 2.471-1.125 4.677-1.125 6.472 0 2.976 1.051 5.54 1.984 7.697S66 77.423 66 78.532c0 1.08-.343 1.222-.899 1.498a3.579 3.579 0 01-1.17.324h-8.695s-.615-.047-1.17-.324c-.556-.276-.9-.418-.9-1.498 0-1.109.75-2.906 1.684-5.063.933-2.157 1.983-4.721 1.983-7.697 0-1.795-.555-4.001-1.124-6.472-.505-2.193-.998-4.446-1.253-6.287zm13.979 0h3.85c-1.085 4.954-2.618 8.816-2.618 12.76 0 2.975 1.044 5.568 1.976 7.764.933 2.196 1.69 4.047 1.69 5.155 0 1.179-.3 1.25-.666 1.445-.365.196-.759.217-.759.217h-2.574c.203-.55.333-1.154.333-1.822 0-2.379-1.084-4.423-1.984-6.505-.9-2.08-1.683-4.152-1.683-6.255 0-.865.468-3.199 1.035-5.66.538-2.337 1.132-4.87 1.4-7.099zM33 58.481a1.84 1.84 0 00-1.296.534 1.817 1.817 0 000 2.578 1.84 1.84 0 002.593 0 1.818 1.818 0 000-2.578A1.84 1.84 0 0033 58.481z" fill="#CE4E06"/></svg>