<svg width="70" height="84" viewBox="0 0 70 84" fill="none" xmlns="http://www.w3.org/2000/svg">
<path d="M68.4339 0.000383881C68.2189 0.00551081 68.0039 0.061907 67.8093 0.1747L46.5671 12.264C42.973 14.3148 39.7373 16.909 36.9623 19.98L34.2232 23.0049C29.2979 27.9883 27.0298 35.0788 28.1357 42.0002H19.0839C16.9182 42.0002 15.1518 43.769 15.1518 45.9377C15.1518 48.1064 16.9182 49.8752 19.0839 49.8752H20.3945V50.475C20.3945 51.7619 19.473 52.8539 18.2032 53.0692L9.33057 54.5458C6.66314 54.9918 4.51281 57.0785 3.98035 59.7342L0.0790359 79.2884C-0.156476 80.4522 0.140474 81.6416 0.88797 82.5593C1.64058 83.4719 2.75159 84 3.92915 84H60.4521C61.6297 84 62.7407 83.4719 63.4882 82.5593C64.2408 81.6416 64.5377 80.4522 64.3022 79.2884L60.3958 59.7342C59.8684 57.0785 57.7181 54.9918 55.0456 54.5458L46.178 53.0692C44.9083 52.8539 43.9867 51.7619 43.9867 50.475V49.8752H45.2974C47.4631 49.8752 49.2294 48.1064 49.2294 45.9377C49.2294 44.6354 48.5843 43.487 47.6116 42.7692C50.2585 41.508 52.6392 39.7341 54.6206 37.4885L59.7404 31.7053C60.3548 31.0388 60.9334 30.3518 61.4965 29.6494C61.5068 29.6289 61.5273 29.6135 61.5375 29.593C67.9066 21.6053 70.8966 11.4027 69.7651 1.16932C69.7139 0.728409 69.4476 0.343889 69.0534 0.143938C68.8589 0.0413993 68.6438 -0.00474305 68.4339 0.000383881ZM67.3229 3.47132C67.8042 12.2127 65.0855 20.8055 59.6944 27.6961L53.0027 29.0393C52.2962 29.1777 51.8354 29.8699 51.9788 30.5825C52.1017 31.208 52.6495 31.6387 53.2639 31.6387C53.3458 31.6387 53.4328 31.6284 53.5198 31.6079L56.9297 30.926L55.2657 32.8076C55.1377 32.7922 55.0148 32.7768 54.8817 32.8076L45.4766 34.6943C44.7649 34.8327 44.3041 35.5249 44.4475 36.2375C44.5704 36.8579 45.1182 37.2885 45.7275 37.2885C45.8145 37.2885 45.9015 37.2834 45.9886 37.2629L52.4447 35.9709C49.7465 38.9292 46.2599 40.9543 42.3433 41.8259C42.1948 41.8566 42.0668 41.9284 41.9439 42.0002H34.4075L42.1231 34.279C42.6351 33.7663 42.6351 32.9358 42.1231 32.4231C41.606 31.9104 40.7817 31.9104 40.2646 32.4231L30.7775 41.9335L30.7366 41.708C29.7177 35.571 31.7196 29.27 36.1278 24.8096L38.9027 21.7437C41.4934 18.8777 44.5089 16.4578 47.8624 14.5455L67.3229 3.47132ZM56.2538 16.9603C55.921 16.9603 55.5831 17.0884 55.3271 17.3499L53.4482 19.2315C52.9311 19.7442 52.9311 20.5748 53.4482 21.0874C53.699 21.3438 54.0369 21.472 54.3697 21.472C54.7076 21.472 55.0456 21.3438 55.2964 21.0874L57.1805 19.2007C57.6925 18.6932 57.6925 17.8626 57.1805 17.3499C56.9245 17.0884 56.5866 16.9603 56.2538 16.9603ZM50.6067 22.6153C50.2739 22.6153 49.936 22.7434 49.68 22.9998L44.0328 28.6548C43.5208 29.1675 43.5208 29.998 44.0328 30.5107C44.2888 30.7671 44.6216 30.8953 44.9595 30.8953C45.2974 30.8953 45.6302 30.7671 45.8862 30.5107L51.5334 24.8557C52.0453 24.343 52.0453 23.5125 51.5334 22.9998C51.2774 22.7434 50.9395 22.6153 50.6067 22.6153ZM19.0839 44.6252H45.2974C46.0193 44.6252 46.6081 45.2148 46.6081 45.9377C46.6081 46.6606 46.0193 47.2502 45.2974 47.2502H19.0839C18.362 47.2502 17.7732 46.6606 17.7732 45.9377C17.7732 45.2148 18.362 44.6252 19.0839 44.6252ZM23.0159 49.8752H41.3654V50.475C41.3654 53.0539 43.2085 55.2328 45.7479 55.6583L54.6206 57.1349C56.2231 57.4015 57.5133 58.6525 57.8307 60.2469L58.9213 65.7327C58.7626 65.6661 58.5885 65.6251 58.4042 65.6251C57.6772 65.6251 57.0935 66.2147 57.0935 66.9376V69.5626C57.0935 70.2855 57.6772 70.8751 58.4042 70.8751C59.1056 70.8751 59.6688 70.3214 59.6995 69.6292L60.4726 73.5001H3.90867L4.68177 69.6292C4.71248 70.3214 5.27567 70.8751 5.97708 70.8751C6.7041 70.8751 7.28776 70.2855 7.28776 69.5626V66.9376C7.28776 66.2147 6.7041 65.6251 5.97708 65.6251C5.79277 65.6251 5.61869 65.6661 5.45998 65.7327L6.00268 63.0001H43.9867C44.7137 63.0001 45.2974 62.4105 45.2974 61.6876C45.2974 60.9647 44.7137 60.3751 43.9867 60.3751H6.53003L6.5505 60.2469C6.86793 58.6525 8.15813 57.4015 9.76064 57.1349L18.6333 55.6583C21.1727 55.2328 23.0159 53.0539 23.0159 50.475V49.8752ZM49.2294 60.3751C48.5024 60.3751 47.9188 60.9647 47.9188 61.6876C47.9188 62.4105 48.5024 63.0001 49.2294 63.0001H54.4721C55.1992 63.0001 55.7828 62.4105 55.7828 61.6876C55.7828 60.9647 55.1992 60.3751 54.4721 60.3751H49.2294ZM12.5305 65.6251C11.8035 65.6251 11.2198 66.2147 11.2198 66.9376V69.5626C11.2198 70.2855 11.8035 70.8751 12.5305 70.8751C13.2575 70.8751 13.8411 70.2855 13.8411 69.5626V66.9376C13.8411 66.2147 13.2575 65.6251 12.5305 65.6251ZM19.0839 65.6251C18.3568 65.6251 17.7732 66.2147 17.7732 66.9376V69.5626C17.7732 70.2855 18.3568 70.8751 19.0839 70.8751C19.8109 70.8751 20.3945 70.2855 20.3945 69.5626V66.9376C20.3945 66.2147 19.8109 65.6251 19.0839 65.6251ZM25.6372 65.6251C24.9102 65.6251 24.3266 66.2147 24.3266 66.9376V69.5626C24.3266 70.2855 24.9102 70.8751 25.6372 70.8751C26.3643 70.8751 26.9479 70.2855 26.9479 69.5626V66.9376C26.9479 66.2147 26.3643 65.6251 25.6372 65.6251ZM32.1906 65.6251C31.4636 65.6251 30.8799 66.2147 30.8799 66.9376V69.5626C30.8799 70.2855 31.4636 70.8751 32.1906 70.8751C32.9176 70.8751 33.5013 70.2855 33.5013 69.5626V66.9376C33.5013 66.2147 32.9176 65.6251 32.1906 65.6251ZM38.744 65.6251C38.017 65.6251 37.4333 66.2147 37.4333 66.9376V69.5626C37.4333 70.2855 38.017 70.8751 38.744 70.8751C39.471 70.8751 40.0547 70.2855 40.0547 69.5626V66.9376C40.0547 66.2147 39.471 65.6251 38.744 65.6251ZM45.2974 65.6251C44.5704 65.6251 43.9867 66.2147 43.9867 66.9376V69.5626C43.9867 70.2855 44.5704 70.8751 45.2974 70.8751C46.0244 70.8751 46.6081 70.2855 46.6081 69.5626V66.9376C46.6081 66.2147 46.0244 65.6251 45.2974 65.6251ZM51.8508 65.6251C51.1238 65.6251 50.5401 66.2147 50.5401 66.9376V69.5626C50.5401 70.2855 51.1238 70.8751 51.8508 70.8751C52.5778 70.8751 53.1615 70.2855 53.1615 69.5626V66.9376C53.1615 66.2147 52.5778 65.6251 51.8508 65.6251ZM3.38133 76.125H60.9999L61.7372 79.8062C61.814 80.1907 61.7116 80.5906 61.4607 80.8982C61.215 81.2007 60.8412 81.375 60.4521 81.375H3.92915C3.53492 81.375 3.1663 81.2007 2.91542 80.8982C2.66967 80.5906 2.56728 80.1958 2.64919 79.8062L3.38133 76.125Z" fill="#CE4E06"/>
</svg>
