<svg width="79" height="84" viewBox="0 0 79 84" fill="none" xmlns="http://www.w3.org/2000/svg">
<path d="M34.0017 0C33.0494 0 32.136 0.376478 31.4626 1.04661C30.7892 1.71675 30.4109 2.62565 30.4109 3.57337C30.4109 4.52108 30.7892 5.42998 31.4626 6.10012C32.136 6.77025 33.0494 7.14673 34.0017 7.14673C34.9541 7.14673 35.8675 6.77025 36.5409 6.10012C37.2143 5.42998 37.5926 4.52108 37.5926 3.57337C37.5926 2.62565 37.2143 1.71675 36.5409 1.04661C35.8675 0.376478 34.9541 0 34.0017 0ZM25.3051 3.58383C24.7791 3.53191 24.2373 3.71463 23.8603 4.08983C23.5371 4.4293 23.3413 4.89551 23.3413 5.36005C23.3413 5.82459 23.5371 6.2908 23.8603 6.63027C24.2014 6.95187 24.6699 7.14673 25.1367 7.14673C25.3702 7.14673 25.6051 7.09299 25.8206 7.00366C26.036 6.91432 26.2336 6.79107 26.4132 6.63027C26.7364 6.2908 26.9322 5.82459 26.9322 5.36005C26.9322 4.89551 26.7364 4.4293 26.4132 4.08983C26.2336 3.92903 26.036 3.80577 25.8206 3.71644C25.6545 3.64497 25.4804 3.60114 25.3051 3.58383ZM18.1969 7.16767C17.7436 7.10737 17.2699 7.21987 16.8749 7.52361C16.0849 8.11322 15.9388 9.23603 16.5312 10.0222C16.8903 10.4867 17.4304 10.7201 17.969 10.7201C18.346 10.7201 18.7224 10.6143 19.0456 10.3642V10.3432C19.8356 9.75361 19.9817 8.6308 19.3892 7.84466C19.084 7.46052 18.6503 7.22797 18.1969 7.16767ZM37.7504 12.4998C37.5907 12.4985 37.4315 12.5185 37.277 12.5591C36.8305 12.5308 36.3779 12.5068 35.9094 12.5068C31.0617 12.5068 24.6866 13.9827 19.5751 19.3115C14.4636 24.6403 10.7732 33.6492 10.7732 48.2404C10.7732 59.8921 18.5733 69.6806 28.7276 69.6806C29.7096 69.6806 30.7238 69.5602 31.7469 69.377C31.7743 69.3757 31.8001 69.3821 31.8276 69.3805C32.0001 69.37 32.1702 69.3347 32.3325 69.2758C38.762 67.9121 45.5769 62.9773 49.277 54.7311C49.6335 56.8519 50.1357 58.8698 50.841 60.7123C51.8155 63.2579 53.1974 65.5052 55.1964 67.1297C57.1954 68.7543 59.7987 69.6806 62.841 69.6806H66.4319C66.7849 69.6848 67.1313 69.5852 67.4278 69.3945C70.0457 69.0163 71.9449 67.5937 72.73 66.0549C73.6255 64.2997 73.6137 62.8728 73.6137 62.5339C73.617 62.2971 73.5731 62.0621 73.4844 61.8424C73.3956 61.6227 73.2639 61.4227 73.0969 61.2541C72.9298 61.0855 72.7308 60.9516 72.5113 60.8602C72.2917 60.7688 72.0562 60.7218 71.8182 60.7218C71.5803 60.7218 71.3447 60.7688 71.1252 60.8602C70.9057 60.9516 70.7066 61.0855 70.5396 61.2541C70.3725 61.4227 70.2408 61.6227 70.1521 61.8424C70.0634 62.0621 70.0194 62.2971 70.0228 62.5339C70.0228 62.2772 69.9897 63.5315 69.5283 64.4357C69.067 65.34 68.5106 66.1073 66.4319 66.1073C66.0579 66.1073 65.8418 66.0209 65.4535 65.6048C65.0652 65.1886 64.6205 64.4158 64.2507 63.3854C63.5111 61.3246 63.0559 58.3038 62.8375 55.2615C62.4008 49.177 62.8375 43.006 62.8375 43.006C62.8375 43.0049 62.8375 43.0037 62.8375 43.0025C63.4478 34.2307 64.5855 29.0321 66.3407 23.7922C66.4271 23.534 66.453 23.2595 66.4165 22.9898C66.3801 22.72 66.2822 22.4622 66.1303 22.2358C62.0287 16.1134 54.2987 14.3458 54.2987 14.3458C54.1244 14.3031 53.9448 14.2866 53.7656 14.297C53.3825 14.3176 53.016 14.4599 52.7201 14.703C52.4241 14.946 52.2141 15.277 52.121 15.6474C52.121 15.6474 51.3815 18.735 50.585 22.9966C49.7126 20.3086 48.3564 17.781 46.1455 15.8743C44.2093 14.2044 41.6607 13.0832 38.5219 12.6813C38.2815 12.5643 38.018 12.5023 37.7504 12.4998ZM11.6218 12.5138C11.1662 12.5584 10.7262 12.7787 10.412 13.1628C9.76566 13.9132 9.87142 15.0395 10.6435 15.6649C10.9666 15.9508 11.3811 16.0732 11.7761 16.0732C12.2968 16.0732 12.8162 15.8599 13.1753 15.4311C13.8037 14.6807 13.6949 13.5548 12.9228 12.9116C12.5458 12.5989 12.0774 12.4691 11.6218 12.5138ZM75.4091 16.0801C74.4568 16.0801 73.5434 16.4566 72.87 17.1268C72.1966 17.7969 71.8182 18.7058 71.8182 19.6535C71.8182 20.6012 72.1966 21.5101 72.87 22.1803C73.5434 22.8504 74.4568 23.2269 75.4091 23.2269C76.3615 23.2269 77.2748 22.8504 77.9483 22.1803C78.6217 21.5101 79 20.6012 79 19.6535C79 18.7058 78.6217 17.7969 77.9483 17.1268C77.2748 16.4566 76.3615 16.0801 75.4091 16.0801ZM37.7013 16.1744C40.4188 16.4424 42.3401 17.3196 43.796 18.5752C45.5548 20.092 46.6987 22.2547 47.422 24.8251C48.8685 29.966 48.4775 36.5079 48.4775 41.0937C48.4775 56.2863 38.961 64.2577 31.3822 65.8072C30.2663 65.83 29.5183 65.5468 28.8048 64.9208C28.0399 64.2498 27.3198 63.0876 26.7498 61.4102C25.61 58.0556 25.1367 52.7885 25.1367 46.4538C25.1367 32.4581 28.6267 24.8739 31.9258 20.7702C33.5753 18.7183 35.1901 17.523 36.3653 16.8409C36.9626 16.4942 37.4047 16.2915 37.7013 16.1744ZM30.7405 16.7432C30.2042 17.2792 29.662 17.8631 29.1204 18.5368C25.2377 23.3665 21.5459 31.8625 21.5459 46.4538C21.5459 52.951 21.9535 58.4497 23.3483 62.5548C23.6938 63.5716 24.1015 64.5111 24.6002 65.3535C18.7446 63.1753 14.3641 56.4786 14.3641 48.2404C14.3641 34.2448 17.8555 26.2801 22.1701 21.7822C24.8229 19.0166 27.8451 17.5041 30.7405 16.7432ZM55.1964 18.5194C57.0538 19.179 60.2364 20.5814 62.6552 23.7119C60.9996 28.8904 59.8411 34.3144 59.2536 42.7583C59.2534 42.7617 58.7928 49.0923 59.2536 55.5128C59.4841 58.7239 59.9266 61.9565 60.8702 64.5858C61.0537 65.097 61.4008 65.4604 61.6312 65.9258C59.9561 65.729 58.5653 65.2502 57.4687 64.359C56.1013 63.2477 55.0144 61.5865 54.1935 59.4421C52.5516 55.1532 52.0684 49.0487 52.0684 42.8804C52.0684 32.1292 54.5537 21.2448 55.1964 18.5194ZM7.31207 19.671C6.61774 19.5981 5.91177 19.9385 5.54819 20.5818C5.08138 21.4394 5.3873 22.5316 6.26707 23.014C6.53639 23.1569 6.84245 23.2269 7.12972 23.2269C7.75813 23.2269 8.36661 22.9061 8.70775 22.2986C9.17456 21.441 8.85068 20.3519 7.98887 19.8873C7.77342 19.7667 7.54352 19.6952 7.31207 19.671ZM4.40851 26.8037C3.71081 26.8473 3.0688 27.2934 2.81295 27.9902C2.48977 28.9193 2.97692 29.9368 3.91055 30.2585C4.10805 30.3299 4.30527 30.3648 4.52072 30.3666C5.25685 30.3666 5.93814 29.9197 6.20746 29.1871C6.53064 28.2581 6.04699 27.2409 5.11336 26.9014C4.87995 26.821 4.64107 26.7892 4.40851 26.8037ZM72.9053 26.8282C72.216 26.9412 71.6221 27.4515 71.4605 28.1752C71.2271 29.1221 71.817 30.089 72.7686 30.3213C72.9122 30.357 73.0562 30.3736 73.1999 30.3736C74.0078 30.3736 74.7452 29.8202 74.9427 29.0161C75.1761 28.0513 74.5832 27.0849 73.6137 26.8526C73.3758 26.7945 73.1351 26.7905 72.9053 26.8282ZM72.232 33.9644C71.2445 33.8751 70.3826 34.6079 70.2928 35.5906C70.203 36.5733 70.9395 37.4489 71.9269 37.5203H72.0882C73.0039 37.5203 73.7943 36.8233 73.8662 35.8942C73.9559 34.9115 73.2195 34.0359 72.232 33.9644ZM2.32201 33.9784C1.63609 34.109 1.06394 34.6436 0.915811 35.3672C0.718313 36.3321 1.3275 37.2784 2.31499 37.475C2.42272 37.5107 2.55051 37.5273 2.67619 37.5273C3.52004 37.5273 4.25702 36.9363 4.43656 36.0966C4.63406 35.1318 4.02136 34.1854 3.03387 33.9889C2.79149 33.9352 2.55065 33.9348 2.32201 33.9784ZM71.8182 41.0937C70.8307 41.0758 70.0228 41.8803 70.0228 42.8629C70.0228 43.8456 70.8132 44.6492 71.8007 44.6671C72.7882 44.6671 73.5957 43.8805 73.6137 42.8978C73.6137 41.8973 72.8237 41.0937 71.8182 41.0937ZM1.94679 41.1321C0.959295 41.0428 0.0973423 41.7756 0.00757016 42.7583C-0.0822018 43.7409 0.636255 44.5987 1.6417 44.688H1.80301C2.71869 44.688 3.49115 43.9909 3.58092 43.0619C3.67069 42.0792 2.93428 41.2214 1.94679 41.1321ZM75.3916 46.4293C74.918 46.4405 74.468 46.6374 74.1397 46.9772L71.8182 49.2873L69.4968 46.9772C69.3295 46.806 69.1294 46.67 68.9083 46.5771C68.6873 46.4842 68.4498 46.4363 68.2098 46.4363C67.8526 46.4364 67.5036 46.5425 67.2073 46.741C66.9111 46.9395 66.681 47.2215 66.5466 47.5508C66.4122 47.8801 66.3796 48.2418 66.4528 48.5897C66.5261 48.9376 66.702 49.2558 66.9579 49.5037L70.5488 53.077C70.8855 53.412 71.3421 53.6001 71.8182 53.6001C72.2943 53.6001 72.7509 53.412 73.0877 53.077L76.6786 49.5037C76.9393 49.2542 77.1182 48.9321 77.1919 48.5797C77.2656 48.2272 77.2306 47.8609 77.0915 47.5286C76.9524 47.1963 76.7157 46.9135 76.4123 46.7174C76.109 46.5212 75.7532 46.4208 75.3916 46.4293ZM1.7434 48.2404C0.755905 48.294 -0.0182391 49.1173 0.0356239 50.1179C0.0715328 51.0648 0.861948 51.8138 1.81353 51.8138H1.90471C2.8922 51.7602 3.66284 50.9369 3.60897 49.9364C3.57307 48.9537 2.73089 48.1868 1.7434 48.2404ZM3.1005 55.4116C2.87158 55.368 2.63102 55.3685 2.38863 55.4221C1.4191 55.6186 0.791533 56.565 1.00699 57.5298C1.18653 58.3695 1.92 58.9605 2.76385 58.9605C2.87158 58.9605 2.99937 58.9435 3.12505 58.9256C4.09459 58.7112 4.72173 57.7618 4.52423 56.797C4.36264 56.0734 3.78726 55.5423 3.1005 55.4116ZM4.86438 62.5374C4.6321 62.5315 4.39546 62.5702 4.16654 62.6595C3.25087 63.0347 2.8006 64.072 3.17765 65.0011C3.44696 65.6979 4.12909 66.1073 4.82931 66.1073C5.06272 66.1073 5.29767 66.071 5.51312 65.9816C6.4288 65.6064 6.87556 64.5723 6.49851 63.661C6.21573 62.9776 5.56124 62.555 4.86438 62.5374ZM9.26532 68.7035C8.81197 68.6298 8.32972 68.7282 7.92575 69.0141C7.1178 69.6037 6.9405 70.7122 7.533 71.5162C7.87413 71.9986 8.4317 72.2508 8.98829 72.249C9.34737 72.249 9.7066 72.1393 10.0298 71.907C10.8377 71.3353 11.0146 70.2299 10.4401 69.4259C10.1438 69.0239 9.71867 68.7772 9.26532 68.7035ZM26.9147 73.2366C26.5575 73.2366 26.2084 73.3427 25.9122 73.5413C25.6159 73.7398 25.3859 74.0217 25.2515 74.351C25.1171 74.6803 25.0844 75.0421 25.1577 75.3899C25.2309 75.7378 25.4068 76.056 25.6628 76.3039L27.9842 78.6141L25.6628 80.9242C25.4904 81.0888 25.3529 81.286 25.2581 81.5042C25.1633 81.7224 25.1132 81.9572 25.1108 82.1949C25.1084 82.4326 25.1536 82.6684 25.2439 82.8885C25.3342 83.1086 25.4677 83.3085 25.6366 83.4766C25.8056 83.6447 26.0065 83.7776 26.2276 83.8674C26.4488 83.9573 26.6858 84.0023 26.9246 83.9999C27.1635 83.9975 27.3995 83.9477 27.6187 83.8533C27.838 83.759 28.0362 83.6221 28.2016 83.4507L31.7925 79.8773C32.1291 79.5422 32.3182 79.0878 32.3182 78.6141C32.3182 78.1403 32.1291 77.6859 31.7925 77.3508L28.2016 73.7774C28.0343 73.6063 27.8342 73.4702 27.6132 73.3773C27.3921 73.2844 27.1546 73.2366 26.9147 73.2366ZM14.0695 73.2784C13.6139 73.3521 13.1891 73.5988 12.9018 74.0008C12.3272 74.8048 12.5041 75.9097 13.3121 76.4993V76.4819C13.637 76.7142 13.9945 76.8204 14.3536 76.8204C14.9102 76.8204 15.4677 76.5735 15.8089 76.0911C16.4014 75.287 16.2241 74.1607 15.4161 73.589C15.0121 73.3031 14.5251 73.2047 14.0695 73.2784ZM21.3775 76.8343C21.2022 76.8491 21.0281 76.8895 20.862 76.9565C20.6466 77.0458 20.449 77.19 20.2694 77.3508C19.9462 77.6903 19.7504 78.1351 19.7504 78.6175C19.7504 79.0821 19.9462 79.5452 20.2694 79.8668C20.449 80.0455 20.6466 80.1718 20.862 80.2611C21.0775 80.3505 21.3125 80.4042 21.5459 80.4042C22.0127 80.4042 22.4812 80.2063 22.8223 79.8668C23.1455 79.5452 23.3413 79.0821 23.3413 78.6175C23.3413 78.1351 23.1455 77.6903 22.8223 77.3508C22.4453 76.9756 21.9035 76.79 21.3775 76.8343Z" fill="#CE4E06"/>
</svg>
