<svg width="77" height="84" viewBox="0 0 77 84" fill="none" xmlns="http://www.w3.org/2000/svg">
<path d="M55 0C51.8795 0 49.3461 2.52078 49.3461 5.62136V9.26687C49.3464 9.77704 49.5453 10.2673 49.9011 10.6349C50.2568 11.0026 50.7419 11.2191 51.2546 11.2392C50.8785 16.8307 48.9628 21.1872 46.9076 25.807C44.616 30.9583 42.1667 36.4492 42.1667 43.8209C42.1667 54.7052 45.8334 61.3878 45.8334 65.7723C45.8334 67.8753 45.0443 69.9981 44.1433 72.12C43.2423 74.2418 42.1667 76.3132 42.1667 78.6919C42.1667 81 43.4988 82.6688 44.7628 83.3449C46.0268 84.0209 47.2585 83.9999 47.2585 83.9999H71.9082C71.9082 83.9999 73.14 84.0209 74.404 83.3449C75.668 82.6688 77 81 77 78.6919C77 76.3132 75.9244 74.2418 75.0234 72.12C74.1225 69.9981 73.3333 67.8753 73.3333 65.7723C73.3333 61.39 77 54.7052 77 43.8209C77 36.4492 74.5508 30.9583 72.2591 25.807C70.204 21.1872 68.2883 16.8307 67.9121 11.2392C68.4249 11.2191 68.9099 11.0026 69.2657 10.6349C69.6214 10.2673 69.8203 9.77704 69.8207 9.26687V5.62136C69.8207 2.52078 67.2872 0 64.1667 0H55ZM55 3.95168H64.1667C64.9218 3.95168 65.8461 4.87227 65.8461 5.62136V7.29103H53.3207V5.62136C53.3207 4.87227 54.2449 3.95168 55 3.95168ZM23.7618 11.0896C8.89601 11.0896 0.146874 21.0156 0.014505 31.4354C0.00448898 31.5146 -0.000295587 31.5942 0.000182114 31.674C-0.000710703 31.7369 0.00167971 31.7999 0.00734356 31.8627C0.0311719 36.9282 1.22833 47.6312 2.42433 57.3457C3.62793 67.1218 4.82537 75.66 4.83416 75.7228C5.2128 79.4708 8.18175 82.5271 12.0171 83.2487C12.0314 83.2513 12.0457 83.2537 12.06 83.2559C13.2764 83.4555 15.7518 83.6022 18.5483 83.7472C21.2896 83.8893 24.0899 83.9922 25.6632 83.9964C25.6656 83.9964 25.6716 83.9964 25.6739 83.9964C25.7181 83.9991 25.7622 84.0003 25.8064 83.9999C29.4752 83.9999 33.648 83.5866 35.9578 83.0992H35.9614C37.3446 82.825 38.5952 82.2211 39.6388 81.3975C39.8361 81.2519 40.002 81.0684 40.1266 80.8578C40.2512 80.6472 40.332 80.4139 40.3641 80.1716C40.3962 79.9294 40.379 79.6832 40.3135 79.4477C40.248 79.2122 40.1356 78.9922 39.9829 78.8008C39.8302 78.6094 39.6404 78.4504 39.4247 78.3334C39.209 78.2163 38.9718 78.1436 38.7272 78.1194C38.4827 78.0953 38.2358 78.1203 38.0011 78.193C37.7665 78.2656 37.549 78.3844 37.3614 78.5423C36.7521 79.0232 36.0314 79.3687 35.2416 79.5249C35.2333 79.526 35.2249 79.5272 35.2166 79.5285C33.5163 79.889 29.5448 80.2756 26.2576 80.3152C23.7113 79.2193 21.6954 76.5945 20.353 72.9423C18.9693 69.1776 18.3335 64.5278 18.3335 60.3041C18.3335 49.3886 21.346 43.1585 24.2202 39.2391C24.2238 39.2332 24.2274 39.2273 24.2309 39.2213C25.1485 37.9408 27.7673 36.8432 31.0414 35.9745C34.0866 35.1666 37.5034 34.3938 40.4659 33.0268C40.745 33.0062 41.0156 32.9223 41.2571 32.7816C41.4985 32.6409 41.7043 32.4471 41.8588 32.2151C41.8787 32.1872 41.8978 32.1587 41.9161 32.1297C41.939 32.0913 41.9605 32.0521 41.9805 32.0122C42.0991 31.7854 42.1683 31.5363 42.1837 31.2811C42.1991 31.026 42.1604 30.7705 42.0701 30.5312C42.0034 29.7947 41.7825 28.2304 40.4301 26.4264C38.7463 24.1804 35.3285 22.1872 29.6736 22.0903C28.1207 20.4965 26.466 19.3653 24.9148 18.8684C23.5432 18.429 22.2713 18.3138 21.3449 18.3095C20.4184 18.3051 19.8374 18.4091 19.8374 18.4091C19.548 18.4613 19.2756 18.5819 19.043 18.7607C18.8103 18.9396 18.6244 19.1714 18.5008 19.4367C18.3772 19.702 18.3196 19.9929 18.3329 20.285C18.3461 20.577 18.4299 20.8616 18.577 21.1148C18.577 21.1148 18.8524 21.8249 19.0031 22.1472C13.693 22.4632 10.0168 24.6996 7.86344 27.0316C6.83822 28.1419 6.15269 29.2408 5.6613 30.1574C4.7305 29.4353 4.29327 28.7529 4.2505 27.7009C4.24821 27.6342 4.24223 27.5676 4.23259 27.5016C6.0812 20.5958 12.5896 14.7351 23.7618 14.7351C35.7691 14.7351 40.0467 19.8191 41.7585 22.9055C41.8731 23.1181 42.0289 23.306 42.217 23.4582C42.4051 23.6105 42.6217 23.7242 42.8543 23.7926C43.0869 23.8611 43.3309 23.883 43.572 23.857C43.8132 23.8311 44.0468 23.7578 44.2592 23.6415C44.4717 23.5251 44.6589 23.368 44.8098 23.1793C44.9608 22.9905 45.0726 22.7738 45.1388 22.5418C45.2049 22.3098 45.2241 22.067 45.1952 21.8275C45.1663 21.5881 45.0899 21.3567 44.9705 21.1468C42.7516 17.1464 36.8602 11.0896 23.7618 11.0896ZM54.9177 11.2427H64.2491C64.6387 17.632 66.8271 22.6041 68.9076 27.2808C69.4847 28.5781 70.0506 29.8557 70.5762 31.1435L67.2425 31.1506L64.0342 23.1725C63.9023 22.8297 63.6693 22.5346 63.3658 22.3256C63.0624 22.1166 62.7025 22.0036 62.3334 22.0013C62.0308 21.9999 61.7326 22.073 61.4654 22.214C61.1981 22.355 60.9701 22.5596 60.8017 22.8095C60.6333 23.0595 60.5297 23.3469 60.5002 23.6463C60.4707 23.9457 60.5161 24.2477 60.6325 24.5253L63.3002 31.1578L55.8594 31.1684L58.5342 24.5253C58.6518 24.2436 58.6964 23.9371 58.6639 23.6338C58.6314 23.3305 58.5229 23.0401 58.3483 22.7893C58.1738 22.5385 57.9387 22.3353 57.6646 22.1982C57.3906 22.0612 57.0863 21.9947 56.7797 22.0048C56.4202 22.0173 56.0723 22.1347 55.7795 22.3424C55.4866 22.55 55.2616 22.8387 55.1325 23.1725L51.9135 31.1756L48.5762 31.1827C49.1062 29.8818 49.6763 28.5911 50.2592 27.2808C52.3397 22.6041 54.5281 17.632 54.9177 11.2427ZM22.9777 22.254C23.3692 22.3144 23.3248 22.1879 23.7869 22.3359C25.6664 22.938 27.893 24.2933 29.4659 28.1744C29.5526 28.4008 29.6838 28.6078 29.8519 28.7832C30.0199 28.9586 30.2214 29.0989 30.4446 29.196C30.6679 29.2931 30.9083 29.345 31.1519 29.3486C31.3956 29.3523 31.6375 29.3076 31.8635 29.2172C32.0896 29.1268 32.2953 28.9926 32.4685 28.8223C32.6418 28.652 32.7792 28.449 32.8727 28.2253C32.9662 28.0016 33.0139 27.7616 33.013 27.5194C33.0121 27.2771 32.9627 27.0375 32.8676 26.8145C32.7588 26.5458 32.5728 26.4552 32.4558 26.2021C35.0147 26.7334 36.7475 27.619 37.4867 28.6052C38.0451 29.35 37.9261 29.5297 38.0382 30.0114C35.7408 30.9323 32.9978 31.6802 30.0961 32.4501C26.8844 33.3022 23.6826 34.2456 21.6635 36.6189C18.7238 34.5306 14.658 33.7628 11.1613 32.6565C10.3483 32.3994 9.61197 32.1188 8.89111 31.8377C9.24974 31.1762 9.76748 30.3606 10.5633 29.4988C12.2692 27.6513 15.0701 25.8617 19.7872 25.7464C19.9765 26.8501 20.2892 27.7981 20.174 29.1641C20.1458 29.4066 20.167 29.6523 20.2361 29.8865C20.3053 30.1207 20.4211 30.3387 20.5766 30.5276C20.7321 30.7165 20.9242 30.8724 21.1414 30.9861C21.3587 31.0998 21.5967 31.169 21.8414 31.1895C22.086 31.21 22.3323 31.1814 22.5657 31.1055C22.799 31.0296 23.0146 30.9079 23.1998 30.7475C23.3849 30.5872 23.5357 30.3915 23.6434 30.1721C23.751 29.9527 23.8132 29.714 23.8263 29.4703C24.0691 26.5918 23.5522 24.0714 22.9777 22.254ZM3.82439 33.333C3.85916 33.3578 3.87888 33.4013 3.91391 33.4255C5.6984 34.6616 7.85154 35.4364 10.0477 36.1312C13.7581 37.305 17.5868 38.4053 19.5831 39.6841C16.9484 44.1835 14.6668 50.7104 14.6668 60.3041C14.6668 64.8824 15.3198 69.8699 16.9083 74.1919C17.7176 76.3936 18.7886 78.4522 20.1775 80.155C19.6169 80.1296 19.3022 80.1343 18.7417 80.1052C15.9999 79.963 13.2551 79.753 12.6938 79.6637C10.3918 79.2269 8.68701 77.38 8.48291 75.3596C8.4798 75.3358 8.47622 75.3121 8.47217 75.2884C8.47217 75.2884 7.26965 66.6778 6.06592 56.9006C4.94136 47.7664 3.96637 38.2146 3.82439 33.333ZM71.9011 34.789C72.7616 37.5248 73.3333 40.4368 73.3333 43.8209C73.3333 45.8403 73.1587 47.652 72.9216 49.3675H46.2452C46.0081 47.6521 45.8334 45.8403 45.8334 43.8209C45.8334 40.4533 46.3978 37.5524 47.2514 34.8282L52.7657 34.8211C53.0104 34.8701 53.2626 34.8689 53.5069 34.8175L65.5775 34.7997C65.8784 34.8757 66.1938 34.8745 66.4942 34.7962L71.9011 34.789ZM28.4168 51.1903C27.6874 51.1903 26.988 51.4784 26.4722 51.9911C25.9565 52.5039 25.6668 53.1993 25.6668 53.9244C25.6668 54.6496 25.9565 55.345 26.4722 55.8578C26.988 56.3705 27.6874 56.6586 28.4168 56.6586C29.1461 56.6586 29.8456 56.3705 30.3613 55.8578C30.877 55.345 31.1668 54.6496 31.1668 53.9244C31.1668 53.1993 30.877 52.5039 30.3613 51.9911C29.8456 51.4784 29.1461 51.1903 28.4168 51.1903ZM46.8826 53.013H50.7318C50.9996 55.2418 51.594 57.7749 52.1319 60.1118C52.6985 62.5733 53.1667 64.9066 53.1667 65.7723C53.1667 67.8753 52.384 69.9462 51.4838 72.0274C50.5836 74.1086 49.5001 76.153 49.5001 78.5316C49.5001 79.2 49.6293 79.8042 49.8331 80.3544H47.2585C47.2585 80.3544 46.8653 80.3329 46.4994 80.1372C46.1336 79.9416 45.8334 79.8706 45.8334 78.6919C45.8334 77.5836 46.5911 75.7327 47.5235 73.5369C48.4559 71.3411 49.5001 68.7476 49.5001 65.7723C49.5001 61.8284 47.9667 57.967 46.8826 53.013ZM54.4558 53.013H64.711C64.4554 54.8538 63.9625 57.107 63.4577 59.3001C62.889 61.771 62.3334 63.9769 62.3334 65.7723C62.3334 68.7476 63.384 71.312 64.3171 73.4692C65.2502 75.6264 66 77.4234 66 78.5316C66 79.6123 65.657 79.7542 65.1013 80.0304C64.5455 80.3067 63.9304 80.3544 63.9304 80.3544H55.2364C55.2364 80.3544 54.6212 80.3067 54.0655 80.0304C53.5098 79.7542 53.1667 79.6123 53.1667 78.5316C53.1667 77.4234 53.9165 75.6264 54.8497 73.4692C55.7828 71.312 56.8334 68.7476 56.8334 65.7723C56.8334 63.9769 56.2778 61.771 55.709 59.3001C55.2042 57.107 54.7113 54.8538 54.4558 53.013ZM68.4349 53.013H72.2842C71.2001 57.9673 69.6667 61.8294 69.6667 65.7723C69.6667 68.7476 70.7109 71.3411 71.6432 73.5369C72.5756 75.7327 73.3333 77.5836 73.3333 78.6919C73.3333 79.8706 73.0332 79.9416 72.6673 80.1372C72.3015 80.3329 71.9082 80.3544 71.9082 80.3544H69.3337C69.5375 79.8042 69.6667 79.2 69.6667 78.5316C69.6667 76.153 68.5832 74.1086 67.683 72.0274C66.7827 69.9462 66 67.8753 66 65.7723C66 64.9066 66.4683 62.5733 67.0349 60.1118C67.5728 57.7749 68.1672 55.2418 68.4349 53.013ZM33.0001 58.4813C32.5139 58.4813 32.0476 58.6734 31.7037 59.0152C31.3599 59.357 31.1668 59.8207 31.1668 60.3041C31.1668 60.7875 31.3599 61.2511 31.7037 61.593C32.0476 61.9348 32.5139 62.1268 33.0001 62.1268C33.4863 62.1268 33.9526 61.9348 34.2965 61.593C34.6403 61.2511 34.8334 60.7875 34.8334 60.3041C34.8334 59.8207 34.6403 59.357 34.2965 59.0152C33.9526 58.6734 33.4863 58.4813 33.0001 58.4813Z" fill="#CE4E06"/>
</svg>
