<svg width="114" height="84" viewBox="0 0 114 84" fill="none" xmlns="http://www.w3.org/2000/svg">
<path d="M93.9865 0.000568733C93.0865 -0.0187247 92.2445 0.453995 91.7897 1.24508L70.3822 37.2103C63.8787 37.847 59.2333 40.3939 56.1074 44.0117C52.7685 47.8803 51.0846 52.6846 49.5458 57.4118C48.0167 62.1294 46.6424 66.8276 44.3875 70.6479C42.1906 74.3718 39.2776 77.295 34.2645 79.0604H2.5114C1.62104 79.0508 0.788747 79.5138 0.333887 80.2856C-0.111296 81.0574 -0.111296 82.0028 0.333887 82.7746C0.788747 83.5464 1.62104 84.0095 2.5114 83.9998H34.7193C52.062 83.9998 65.3691 82.8132 74.8147 77.7677C84.0958 72.7993 89.0315 63.7308 89.1863 50.0991L113.72 3.64726C114.349 2.44134 113.884 0.946009 112.674 0.309284C111.465 -0.317791 109.965 0.14528 109.326 1.3512L85.2668 46.9252C83.2441 46.9734 80.3311 46.4042 77.9987 45.0632C76.6632 44.2915 75.5696 43.346 74.9502 42.4585C74.3889 41.6384 74.2727 40.9631 74.3695 40.201L96.0479 3.75338C96.5125 3.00089 96.5415 2.0651 96.1157 1.28367C95.6898 0.511881 94.8769 0.0198646 93.9865 0.000568733ZM69.5306 42.2559C69.7919 43.3557 70.2564 44.3783 70.8758 45.2658C72.0565 46.9734 73.7114 48.3047 75.5212 49.3466C78.2116 50.8902 81.2505 51.8839 84.1635 52.0286C83.6603 63.2581 79.8665 69.4613 72.4727 73.4167C66.2014 76.774 56.1751 78.0282 44.1939 78.5395C45.936 76.8801 47.5038 75.105 48.6554 73.1466C51.3459 68.5931 52.7685 63.5475 54.2686 58.9264C55.759 54.3054 57.3365 50.157 59.8624 47.2339C62.0302 44.7256 64.8562 42.9312 69.5306 42.2559Z" fill="#CE4E06"/>
</svg>
