<svg width="44" height="44" viewBox="0 0 44 44" fill="none" xmlns="http://www.w3.org/2000/svg">
<path d="M0.5 13C0.5 6.10614 6.10614 0.5 13 0.5H31C37.8939 0.5 43.5 6.10614 43.5 13V31C43.5 37.8939 37.8939 43.5 31 43.5H13C6.10614 43.5 0.5 37.8939 0.5 31V13ZM36.5 10C36.5 8.62386 35.3761 7.5 34 7.5C32.6239 7.5 31.5 8.62386 31.5 10C31.5 11.3761 32.6239 12.5 34 12.5C35.3761 12.5 36.5 11.3761 36.5 10ZM33.5 22C33.5 15.6539 28.3461 10.5 22 10.5C15.6539 10.5 10.5 15.6539 10.5 22C10.5 28.3461 15.6539 33.5 22 33.5C28.3461 33.5 33.5 28.3461 33.5 22ZM13.5 22C13.5 17.3161 17.3161 13.5 22 13.5C26.6839 13.5 30.5 17.3161 30.5 22C30.5 26.6839 26.6839 30.5 22 30.5C17.3161 30.5 13.5 26.6839 13.5 22Z" stroke="white"/>
</svg>
