<svg width="46" height="46" viewBox="0 0 46 46" fill="none" xmlns="http://www.w3.org/2000/svg">
<path d="M14 1C6.83 1 1 6.83 1 14V32C1 39.17 6.83 45 14 45H32C39.17 45 45 39.17 45 32V14C45 6.83 39.17 1 32 1H14ZM35 9C36.1 9 37 9.9 37 11C37 12.1 36.1 13 35 13C33.9 13 33 12.1 33 11C33 9.9 33.9 9 35 9ZM23 12C29.07 12 34 16.93 34 23C34 29.07 29.07 34 23 34C16.93 34 12 29.07 12 23C12 16.93 16.93 12 23 12ZM23 14C18.04 14 14 18.04 14 23C14 27.96 18.04 32 23 32C27.96 32 32 27.96 32 23C32 18.04 27.96 14 23 14Z" stroke="#CE4E06"/>
</svg>
