<svg width="44" height="44" viewBox="0 0 44 44" fill="none" xmlns="http://www.w3.org/2000/svg">
<path d="M38 1H6C3.24 1 1 3.24 1 6V38C1 40.76 3.24 43 6 43H38C40.76 43 43 40.76 43 38V6C43 3.24 40.76 1 38 1ZM34.72 30L30.99 29.99C30.99 29.99 30.91 30 30.78 30C30.48 30 29.86 29.92 29.13 29.42C27.82 28.51 26.57 26.25 25.58 26.25C25.51 26.25 25.45 26.26 25.39 26.28C24.53 26.55 24.27 27.41 24.27 28.46C24.27 28.83 24.01 29 23.31 29H21.38C19.22 29 17.13 28.95 14.78 26.38C11.32 22.59 8.08 15.85 8.08 15.85C8.08 15.85 7.9 15.46 8.09 15.23C8.27 15.02 8.69 15 8.85 15C8.89 15 8.91 15 8.91 15H12.91C12.91 15 13.28 15.07 13.55 15.27C13.78 15.44 13.9 15.75 13.9 15.75C13.9 15.75 14.58 17.07 15.43 18.56C16.86 21.02 17.63 21.84 18.18 21.84C18.27 21.84 18.36 21.82 18.45 21.77C19.27 21.32 19.03 17.68 19.03 17.68C19.03 17.68 19.04 16.36 18.61 15.78C18.28 15.32 17.65 15.19 17.37 15.15C17.15 15.12 17.51 14.6 17.99 14.36C18.61 14.06 19.64 14 20.88 14H21.48C22.65 14.02 22.68 14.14 23.14 14.25C24.52 14.58 24.05 15.87 24.05 18.96C24.05 19.95 23.87 21.34 24.58 21.81C24.63 21.84 24.7 21.86 24.79 21.86C25.25 21.86 26.24 21.27 27.82 18.6C28.7 17.08 29.38 15.57 29.38 15.57C29.38 15.57 29.53 15.3 29.76 15.16C29.98 15.03 29.98 15.03 30.27 15.03H30.3C30.62 15.03 33.8 15 34.5 15H34.58C35.25 15 35.86 15.01 35.97 15.42C36.13 16.04 35.48 17.15 33.77 19.45C30.95 23.22 30.63 22.94 32.97 25.12C35.21 27.2 35.67 28.21 35.75 28.34C36.68 29.88 34.72 30 34.72 30Z" stroke="#CE4E06"/>
</svg>
