<svg width="46" height="46" viewBox="0 0 46 46" fill="none" xmlns="http://www.w3.org/2000/svg">
<path d="M36.7035 31.32C36.4551 31.3792 36.198 31.3806 35.9426 31.3799L32.6385 31.3711C32.4917 31.3707 32.3449 31.381 32.1981 31.381V31.381C31.8838 31.381 31.2343 31.2971 30.4695 30.7733C29.0971 29.82 27.7876 27.4524 26.7505 27.4524C26.6771 27.4524 26.6143 27.4629 26.5514 27.4838C25.6505 27.7667 25.3781 28.6676 25.3781 29.7676C25.3781 30.1552 25.1057 30.3333 24.3724 30.3333H22.3505C20.0876 30.3333 17.8981 30.281 15.4362 27.5886C12.0431 23.8719 8.85196 17.4471 8.45791 16.641C8.43035 16.5846 8.40333 16.5289 8.38397 16.4692C8.34066 16.3356 8.28591 16.0792 8.42762 15.9076C8.61619 15.6876 9.05619 15.6667 9.22381 15.6667C9.26572 15.6667 9.28667 15.6667 9.28667 15.6667C9.28667 15.6667 9.28667 15.6667 9.28667 15.6667H12.7443C13.2318 15.6667 13.7559 15.6594 14.1476 15.9495V15.9495V15.9495C14.4848 16.1987 14.6099 16.6386 14.8062 17.0091C15.0954 17.555 15.573 18.4424 16.1171 19.3962C17.6152 21.9733 18.4219 22.8324 18.9981 22.8324C19.0924 22.8324 19.1867 22.8114 19.281 22.759C19.9595 22.3867 19.9452 19.9294 19.9092 18.9131C19.8989 18.6196 19.8925 18.3274 19.8704 18.0345C19.836 17.5762 19.7363 16.8719 19.4486 16.4838C19.1029 16.0019 18.4429 15.8657 18.1495 15.8238C17.919 15.7924 18.2962 15.2476 18.799 14.9962C19.4486 14.6819 20.5276 14.619 21.8267 14.619H22.4552C23.681 14.64 23.7124 14.7657 24.1943 14.881C25.64 15.2267 25.1476 16.5781 25.1476 19.8152C25.1476 20.8524 24.959 22.3086 25.7029 22.801C25.7552 22.8324 25.8286 22.8533 25.9229 22.8533C26.4048 22.8533 27.4419 22.2352 29.0971 19.4381C29.7163 18.3686 30.241 17.3038 30.5188 16.7199C30.6631 16.4165 30.7909 16.0874 31.0578 15.8835C31.0807 15.866 31.1047 15.8494 31.1295 15.8343C31.36 15.6981 31.36 15.6981 31.6638 15.6981H31.6952C32.0305 15.6981 35.3619 15.6667 36.0952 15.6667H36.1791C36.881 15.6667 37.52 15.6771 37.6352 16.1067C37.8029 16.7562 37.1219 17.919 35.3305 20.3286C32.3762 24.2781 32.041 23.9848 34.4924 26.2686C36.8391 28.4476 37.321 29.5057 37.4048 29.6419C38.1035 30.799 37.245 31.1909 36.7035 31.32Z" stroke="white"/>
</svg>
