<svg width="42" height="42" viewBox="0 0 42 42" fill="none" xmlns="http://www.w3.org/2000/svg">
<path d="M33.7346 29.5L33.7187 29.5L30.0149 29.4901C30.0022 29.4912 29.9865 29.4925 29.9681 29.4938C29.9218 29.497 29.8577 29.5 29.78 29.5C29.3916 29.5 28.6704 29.3961 27.8475 28.8325L27.8447 28.8307C27.2382 28.4093 26.6483 27.7301 26.1371 27.1416C26.042 27.0322 25.9496 26.9258 25.8604 26.8249C25.561 26.4862 25.2943 26.2026 25.0519 26.0046C24.7962 25.7959 24.6475 25.75 24.58 25.75C24.5622 25.75 24.5557 25.7518 24.5481 25.7543L24.5398 25.7571L24.5398 25.757C24.2618 25.8443 24.084 26.0171 23.9628 26.2842C23.8326 26.5709 23.77 26.9667 23.77 27.46C23.77 27.6101 23.7436 27.7741 23.6621 27.931C23.5784 28.0921 23.4528 28.2143 23.304 28.3009C23.031 28.4597 22.6773 28.5 22.31 28.5H20.38C19.3041 28.5 18.1713 28.4902 17.0044 28.1317C15.8234 27.7688 14.6391 27.0605 13.411 25.7174L13.4107 25.7171C11.643 23.7808 9.94621 21.1098 8.69915 18.9432C8.07343 17.856 7.55672 16.8884 7.1963 16.1922C7.01603 15.8441 6.87473 15.5636 6.7783 15.3697C6.73008 15.2727 6.69307 15.1974 6.668 15.1461L6.63945 15.0875L6.63206 15.0722L6.63012 15.0682L6.6296 15.0671L6.62944 15.0668C6.6294 15.0667 6.62936 15.0666 7.08 14.85M33.7346 29.5L12.9 14.75C12.9 14.75 12.78 14.44 12.55 14.27L12.8476 13.8682C12.8475 13.8681 12.8473 13.868 12.8472 13.8679C12.6532 13.7243 12.4385 13.6367 12.2883 13.5861C12.2101 13.5598 12.1423 13.5412 12.0928 13.5289C12.068 13.5227 12.0475 13.518 12.0322 13.5147L12.0134 13.5108L12.0071 13.5095L12.0047 13.5091L12.0038 13.5089L12.0033 13.5088L12.0031 13.5088C12.003 13.5087 12.0029 13.5087 11.91 14L12.0029 13.5087L11.9569 13.5H11.91H7.91H7.90999H7.90998H7.90997H7.90996H7.90995H7.90994H7.90993H7.90993H7.90992H7.90991H7.9099H7.90989H7.90988H7.90987H7.90986H7.90985H7.90983H7.90982H7.90981H7.90979H7.90978H7.90977H7.90975H7.90974H7.90972H7.9097H7.90969H7.90967H7.90965H7.90963H7.90962H7.9096H7.90958H7.90956H7.90954H7.90952H7.90949H7.90947H7.90945H7.90943H7.9094H7.90938H7.90936H7.90933H7.90931H7.90928H7.90926H7.90923H7.9092H7.90918H7.90915H7.90912H7.90909H7.90906H7.90903H7.909H7.90897H7.90894H7.90891H7.90888H7.90885H7.90881H7.90878H7.90875H7.90871H7.90868H7.90864H7.90861H7.90857H7.90854H7.9085H7.90846H7.90842H7.90838H7.90835H7.90831H7.90827H7.90823H7.90819H7.90815H7.9081H7.90806H7.90802H7.90798H7.90793H7.90789H7.90785H7.9078H7.90776H7.90771H7.90767H7.90762H7.90757H7.90752H7.90748H7.90743H7.90738H7.90733H7.90728H7.90723H7.90718H7.90713H7.90708H7.90703H7.90697H7.90692H7.90687H7.90681H7.90676H7.9067H7.90665H7.90659H7.90654H7.90648H7.90642H7.90637H7.90631H7.90625H7.90619H7.90613H7.90607H7.90601H7.90595H7.90589H7.90583H7.90577H7.9057H7.90564H7.90558H7.90551H7.90545H7.90538H7.90532H7.90525H7.90519H7.90512H7.90505H7.90499H7.90492H7.90485H7.90478H7.90471H7.90464H7.90457H7.9045H7.90443H7.90436H7.90429H7.90421H7.90414H7.90407H7.90399H7.90392H7.90384H7.90377H7.90369H7.90362H7.90354H7.90346H7.90339H7.90331H7.90323H7.90315H7.90307H7.90299H7.90291H7.90283H7.90275H7.90267H7.90258H7.9025H7.90242H7.90234H7.90225H7.90217H7.90208H7.902H7.90191H7.90182H7.90174H7.90165H7.90156H7.90147H7.90139H7.9013H7.90121H7.90112H7.90103H7.90094H7.90084H7.90075H7.90066H7.90057H7.90048H7.90038H7.90029H7.90019H7.9001H7.9H7.89991H7.89981H7.89971H7.89962H7.89952H7.89942H7.89932H7.89922H7.89912H7.89902H7.89892H7.89882H7.89872H7.89862H7.89852H7.89841H7.89831H7.89821H7.8981H7.898H7.89789H7.89779H7.89768H7.89757H7.89747H7.89736H7.89725H7.89714H7.89704H7.89693H7.89682H7.89671H7.8966H7.89648H7.89637H7.89626H7.89615H7.89604H7.89592H7.89581H7.8957H7.89558H7.89547H7.89535H7.89523H7.89512H7.895H7.89488H7.89476H7.89465H7.89453H7.89441H7.89429H7.89417H7.89405H7.89393H7.89381H7.89368H7.89356H7.89344H7.89331H7.89319H7.89307H7.89294H7.89282H7.89269H7.89256H7.89244H7.89231H7.89218H7.89206H7.89193H7.8918H7.89167H7.89154H7.89141H7.89128H7.89115H7.89102H7.89088H7.89075H7.89062H7.89048H7.89035H7.89022H7.89008H7.88995H7.88981H7.88967H7.88954H7.8894H7.88926H7.88913H7.88899H7.88885H7.88871H7.88857H7.88843H7.88829H7.88815H7.888H7.88786H7.88772H7.88758H7.88743H7.88729H7.88715H7.887H7.88685H7.88671H7.88656H7.88642H7.88627H7.88612H7.88597H7.88582H7.88568H7.88553H7.88538H7.88523H7.88508H7.88492H7.88477H7.88462H7.88447H7.88431H7.88416H7.88401H7.88385H7.8837H7.88354H7.88339H7.88323H7.88307H7.88292H7.88276H7.8826H7.88244H7.88228H7.88212H7.88196H7.8818H7.88164H7.88148H7.88132H7.88116H7.88099H7.88083H7.88067H7.8805H7.88034H7.88017H7.88001H7.87984H7.87967H7.87951H7.87934H7.87917H7.879H7.87884H7.87867H7.8785H7.87833H7.87816H7.87799H7.87781H7.87764H7.87747H7.8773H7.87712H7.87695H7.87678H7.8766H7.87643H7.87625H7.87607H7.8759H7.87572H7.87554H7.87537H7.87519H7.87501H7.87483H7.87465H7.87447H7.87429H7.87411H7.87393H7.87374H7.87356H7.87338H7.8732H7.87301H7.87283H7.87264H7.87246H7.87227H7.87209H7.8719H7.87171H7.87153H7.87134H7.87115H7.87096H7.87077H7.87058H7.87039H7.8702H7.87001H7.86982H7.86963H7.86943H7.86924H7.86905H7.86885H7.86866H7.86846H7.86827H7.86807H7.86788H7.86768H7.86748H7.86729H7.86709H7.86689H7.86669H7.86649H7.86629H7.86609H7.86589H7.86569H7.86549H7.86528H7.86508H7.86488H7.86468H7.86447H7.86427H7.86406H7.86386H7.86365H7.86345H7.86324H7.86303H7.86282H7.86262H7.86241H7.8622H7.86199H7.86178H7.86157H7.86136H7.86115H7.86094H7.86072H7.86051H7.8603H7.86008H7.85987H7.85966H7.85944H7.85922H7.85901H7.85879H7.85858H7.85836H7.85814H7.85792H7.8577H7.85749H7.85727H7.85705H7.85683H7.8566H7.85638H7.85616H7.85594H7.85572H7.85549H7.85527H7.85505H7.85482H7.8546H7.85437H7.85415H7.85392H7.85369H7.85346H7.85324H7.85301H7.85278H7.85255H7.85232H7.85209H7.85186H7.85163H7.8514H7.85117H7.85093H7.8507H7.85047H7.85023H7.85C7.7538 13.5 7.5698 13.5056 7.37387 13.5471C7.19619 13.5848 6.91028 13.6714 6.71037 13.9046L6.71031 13.9046L6.70452 13.9116C6.46859 14.1972 6.49182 14.5378 6.52069 14.7092C6.53714 14.807 6.56213 14.8906 6.58237 14.9491C6.5927 14.9789 6.60233 15.0037 6.60993 15.0223C6.61374 15.0316 6.61709 15.0394 6.61981 15.0457L6.62343 15.0538L6.62486 15.057L6.62547 15.0583L6.62575 15.059L6.62589 15.0592C6.62596 15.0594 6.62602 15.0595 7.08 14.85M33.7346 29.5L33.7506 29.4991M33.7346 29.5L33.7506 29.4991M7.08 14.85L6.62936 15.0666L6.62596 15.0596L7.08 14.85ZM28.38 14.57L27.9429 14.3272L27.9327 14.3455L27.9241 14.3647L28.38 14.57ZM28.38 14.57C27.9429 14.3272 27.943 14.3271 27.943 14.327M28.38 14.57L27.943 14.327M33.7506 29.4991L33.72 29L33.7506 29.4991ZM28.5056 13.7295L28.5056 13.7295C28.5129 13.7252 28.5205 13.7207 28.5282 13.7161C28.614 13.665 28.7291 13.5964 28.8652 13.5617C28.9926 13.5293 29.1276 13.5296 29.2393 13.5299C29.2497 13.53 29.26 13.53 29.27 13.53H29.3C29.4268 13.53 30.018 13.5251 30.7271 13.5193C30.8974 13.5179 31.0744 13.5165 31.2534 13.515C32.1746 13.5075 33.1474 13.5 33.5 13.5H33.58C33.9009 13.5 34.2779 13.5003 34.5901 13.5674C34.8988 13.6338 35.3234 13.8075 35.4529 14.2904L35.4542 14.2951C35.524 14.5658 35.4946 14.8475 35.4148 15.1257C35.3351 15.4038 35.1958 15.7097 35.0085 16.0475C34.6346 16.7219 34.0266 17.5979 33.1713 18.7483L33.1704 18.7495C32.8284 19.2066 32.5301 19.5954 32.2693 19.9354C31.9799 20.3127 31.7366 20.6298 31.5311 20.9133C31.1366 21.4574 30.97 21.7643 30.9245 21.983C30.8929 22.1353 30.9112 22.2784 31.1109 22.5441C31.3329 22.8393 31.7112 23.1955 32.3106 23.7539C32.3106 23.754 32.3107 23.7541 32.3108 23.7542L31.97 24.12L28.5056 13.7295ZM28.5056 13.7295L28.5 13.7329M28.5056 13.7295L28.5 13.7329M28.5 13.7329C28.3117 13.8475 28.1732 14.0026 28.0894 14.1101M28.5 13.7329L28.0894 14.1101M28.0894 14.1101C28.0452 14.1668 28.0105 14.2178 27.9863 14.2555M28.0894 14.1101L27.9863 14.2555M27.9863 14.2555C27.9741 14.2745 27.9643 14.2905 27.9571 14.3027M27.9863 14.2555L27.9571 14.3027M27.9571 14.3027L27.9481 14.318M27.9571 14.3027L27.9481 14.318M27.9481 14.318L27.945 14.3234M27.9481 14.318L27.945 14.3234M27.945 14.3234L27.9439 14.3255M27.945 14.3234L27.9439 14.3255M27.9439 14.3255L27.9434 14.3264M27.9439 14.3255L27.9434 14.3264M27.9434 14.3264L27.9431 14.3268M27.9434 14.3264L27.9431 14.3268M27.9431 14.3268L27.943 14.327M27.9431 14.3268L27.943 14.327M13.3746 14.5792L13.3539 14.5393L17.5311 16.7129L17.5311 16.7131L17.5312 16.7146L17.5316 16.7215L17.5333 16.75C17.5348 16.7754 17.5369 16.8133 17.5393 16.862C17.5441 16.9593 17.5502 17.0996 17.5549 17.2697C17.5644 17.6107 17.5685 18.067 17.548 18.5343C17.5272 19.006 17.4821 19.4682 17.3992 19.8293C17.3577 20.0102 17.3109 20.1467 17.2639 20.2399C17.2308 20.3056 17.2075 20.3301 17.2023 20.3354C17.198 20.3375 17.1952 20.3383 17.1937 20.3387C17.1916 20.3392 17.1875 20.34 17.18 20.34C17.1474 20.34 16.949 20.303 16.5144 19.7968C16.1054 19.3204 15.5742 18.5333 14.8633 17.3104C14.4416 16.5711 14.0617 15.8735 13.7871 15.3603C13.6497 15.1037 13.5389 14.8934 13.4624 14.7475C13.4242 14.6745 13.3946 14.6177 13.3746 14.5792ZM17.18 20.84C17.27 20.84 17.36 20.82 17.45 20.77L14.43 17.56C15.86 20.02 16.63 20.84 17.18 20.84ZM17.2094 20.3317L17.2085 20.3322L17.2094 20.3317ZM5 0.5H37C39.4839 0.5 41.5 2.51614 41.5 5V37C41.5 39.4839 39.4839 41.5 37 41.5H5C2.51614 41.5 0.5 39.4839 0.5 37V5C0.5 2.51614 2.51614 0.5 5 0.5Z" stroke="white"/>
</svg>
